<?xml version="1.0" standalone="no"?><!DOCTYPE svg PUBLIC "-//W3C//DTD SVG 1.1//EN" "http://www.w3.org/Graphics/SVG/1.1/DTD/svg11.dtd"><svg t="1626427599321" class="icon" viewBox="0 0 1024 1024" version="1.1" xmlns="http://www.w3.org/2000/svg" p-id="4397" xmlns:xlink="http://www.w3.org/1999/xlink" width="200" height="200"><defs><style type="text/css"></style></defs><path d="M895.009815 1024h-191.772869a63.92429 63.92429 0 0 1-63.924289-63.92429v-319.621448a63.92429 63.92429 0 0 1 63.924289-63.92429h191.772869v-50.500189a393.134381 393.134381 0 0 0-333.045549-393.773624A383.545738 383.545738 0 0 0 127.918339 512.605683v63.924289h191.772869a63.92429 63.92429 0 0 1 63.92429 63.92429v319.621448a63.92429 63.92429 0 0 1-63.92429 63.92429H127.918339a127.848579 127.848579 0 0 1-127.848579-127.848579V530.504484A522.900689 522.900689 0 0 1 476.305718 1.211365 511.394317 511.394317 0 0 1 1022.858395 512.605683v383.545738a127.848579 127.848579 0 0 1-127.84858 127.848579z m-127.848579-127.848579h127.848579v-191.772869h-127.848579zM127.918339 896.151421h127.84858v-191.772869H127.918339z" fill="#ffffff" p-id="4398"></path></svg>